<?xml version="1.0" encoding="UTF-8" standalone="no"?>
<!--
<#function wordwrap text width x y dy>
	<#assign returnValue>
		<#if (text?length > width)>
			<#local wrap = text?substring(0, width)?last_index_of(" ")>
			<#if wrap <= 0>
				<#local wrap=width>
			</#if>
			${'\n'}<tspan x="${x}" y="${y}">${text?substring(0, wrap)}</tspan>
			${wordwrap(text?substring(wrap + 1), width, x, y + dy, dy)}
		<#else>
			${'\n'}<tspan x="${x}" y="${y}">${text}</tspan>
		</#if>
	</#assign>
	<#return returnValue>
</#function>

<#assign currentDate = .now>
<#assign DATE_TIME = currentDate?string["dd.MM.yyyy"]>
-->
<svg version="1.1" id="Ebene_1" xmlns="http://www.w3.org/2000/svg"
	xmlns:xlink="http://www.w3.org/1999/xlink" x="0px" y="0px"
	viewBox="0 0 890 985" width="890px" height="985px" xml:space="preserve">
	<linearGradient id="SVGID_1_" gradientUnits="userSpaceOnUse" x1="0" y1="985" x2="890" y2="985">
		<stop  offset="0" style="stop-color:#164293"/>
		<stop  offset="1" style="stop-color:#89037A"/>
	</linearGradient>
	<rect fill="url(#SVGID_1_)" width="890" height="985"/>
	<g>
		<g>
			<g>
				<path fill="#FFFFFF" d="M890.1,120V50c0,0-180.8,0-187.9,0c-19.3,0-35,15.7-35,35s15.7,35,35,35C709.3,120,890.1,120,890.1,120
					L890.1,120z"/>
			</g>
		</g>
		<path fill="#164293" d="M814.2,78.5c0-1.8,1.5-3.3,3.3-3.3h15.2c2.4,0,3.8-1.6,3.8-3.5s-1.5-3.5-3.8-3.5h-14.9
			c-6,0-10.6,4.6-10.6,10.3c0,5.7,4.6,10.3,10.6,10.3h12c1.8,0,3.3,1.5,3.3,3.3s-1.5,3.3-3.3,3.3h-15.2c-2.4,0-3.8,1.6-3.8,3.5
			s1.5,3.5,3.8,3.5h14.9c6,0,10.6-4.6,10.6-10.3s-4.6-10.3-10.6-10.3h-12C815.7,81.8,814.2,80.3,814.2,78.5L814.2,78.5z M806.6,96.9
			l-15.4-26.7c-0.4-0.7-0.9-1.2-1.5-1.6l0,0l0,0c-0.4-0.2-0.8-0.4-1.3-0.4l0,0c-0.1,0-0.2,0-0.3,0H788h-0.1c-0.1,0-0.2,0-0.3,0l0,0
			c-0.4,0.1-0.9,0.2-1.3,0.4l0,0l0,0c-0.6,0.3-1.1,0.9-1.5,1.6l-15.4,26.7c-1.2,2-0.6,4.1,1.1,5.1c1.7,1,3.8,0.5,5-1.6L788,78.6
			l12.6,21.8c1.2,2,3.3,2.5,5,1.6C807.2,101,807.8,99,806.6,96.9L806.6,96.9z M774.7,71.7c0-1.9-1.5-3.5-3.8-3.5H741
			c-2.4,0-3.8,1.6-3.8,3.5s1.5,3.5,3.8,3.5h11.4v23.5c0,2.4,1.6,3.8,3.5,3.8s3.5-1.5,3.5-3.8V75.2h11.4
			C773.2,75.2,774.7,73.6,774.7,71.7L774.7,71.7z M737.2,85c0-9.6-7.9-17.5-17.5-17.5c-9.7,0-17.5,7.9-17.5,17.5
			c0,10.3,7.8,17.5,19,17.5h6.3c2.6,0,4.4-1.5,4.4-3.5c0-1.9-1.5-3.5-3.8-3.5h-6.9c-5.7,0-9.8-2.5-11.4-6.6h23.8
			c1.9,0,3.5-1.6,3.5-3.5V85H737.2z M729.7,81.8h-20c1.3-4.2,5.3-7.3,10-7.3C724.3,74.5,728.3,77.6,729.7,81.8L729.7,81.8z"/>
		<path fill="#FFFFFF" d="M77.8,520c0.9,0,2.5,0,4.8-0.1s4.5-0.2,6.5-0.5c6.5-0.9,11.9-3.3,16.1-7.3c4.3-4,7.5-9,9.6-15.1
			s3.2-12.8,3.2-20.3c0-7.4-1.1-14.1-3.2-20.2s-5.3-11.1-9.6-15.1c-4.3-4-9.7-6.4-16.1-7.3c-2-0.3-4.2-0.5-6.5-0.5s-3.9-0.1-4.9-0.1
			H52V520H77.8L77.8,520z M59.3,440.4h18.5c1.7,0,3.5,0.1,5.5,0.2s3.7,0.3,5,0.5c5.3,0.9,9.6,3,12.9,6.3s5.7,7.5,7.2,12.5
			c1.5,5.1,2.3,10.7,2.3,16.9c0,6.2-0.8,11.8-2.3,16.8c-1.5,5.1-3.9,9.2-7.2,12.5c-3.3,3.3-7.6,5.4-13,6.4c-1.4,0.2-3,0.4-4.9,0.5
			s-3.8,0.2-5.6,0.2H59.3V440.4L59.3,440.4z M175,517.2c4.9-3,8.7-7.4,11.3-13l-6.2-2.8c-2.2,4.4-5.2,7.7-8.9,10.1
			c-3.7,2.3-8.1,3.5-13.1,3.5c-7.2,0-12.9-2.4-16.8-7.2c-4-4.8-6-11.6-6-20.3c0-8.8,2-15.6,6-20.4s9.6-7.2,17-7.2
			c7.1,0,12.5,2.3,16.3,7c3.8,4.6,5.8,11.4,6,20.3v2.4h7.2c0.1-7.6-1-14.1-3.3-19.5s-5.7-9.5-10.2-12.4s-9.8-4.3-16.1-4.3
			c-6.2,0-11.6,1.4-16.1,4.1c-4.5,2.8-8,6.7-10.4,11.9c-2.5,5.1-3.7,11.3-3.7,18.3s1.2,13,3.7,18.1s6,9,10.5,11.8s9.9,4.2,16.1,4.2
			C164.4,521.8,170.1,520.3,175,517.2L175,517.2z M183.7,489.6v-6.2h-51.2v6.2H183.7L183.7,489.6z M283.1,520l0.1-44.6
			c0-6.8-2-12.2-5.9-16.1s-9.1-5.9-15.5-5.9c-4.3,0-8.2,1-11.6,2.9c-3.4,1.9-6,4.6-7.9,8.1s-2.8,7.6-2.6,12.3l4.9,0.8
			c0-4.4,0.8-8,2.5-10.6c1.6-2.6,3.7-4.5,6.2-5.6c2.5-1.2,5-1.7,7.5-1.7c4.4,0,8.2,1.5,11.1,4.5c3,3,4.5,7.1,4.5,12.3l-0.1,43.6
			L283.1,520L283.1,520z M206,520v-50.2h-0.6v-14.6h-6.3V520H206L206,520z M244.5,520l0.1-44.3c0-5-1-9.1-2.9-12.4s-4.5-5.8-7.7-7.4
			s-6.7-2.5-10.6-2.5c-4.3,0-8.2,0.9-11.5,2.8s-6,4.5-7.9,7.7c-1.9,3.3-2.9,7-2.9,11.2l4.8,2.4c0-5.4,1.5-9.8,4.4-13.1
			c3-3.3,6.8-4.9,11.6-4.9c4.7,0,8.5,1.6,11.4,4.7s4.4,7.4,4.4,12.8l-0.1,42.9L244.5,520L244.5,520z M341.6,517.5
			c4.5-2.9,8-6.9,10.3-12c2.4-5.1,3.5-11.1,3.5-18c0-6.7-1.2-12.6-3.5-17.7s-5.8-9.1-10.3-12s-10-4.4-16.4-4.4
			c-6.3,0-11.7,1.4-16.2,4.3c-4.5,2.8-8,6.8-10.4,12c-2.4,5.1-3.6,11.1-3.6,17.9c0,6.7,1.2,12.7,3.5,17.8c2.4,5.2,5.8,9.2,10.3,12.1
			c4.5,2.9,9.9,4.4,16.4,4.4C331.6,521.8,337,520.3,341.6,517.5L341.6,517.5z M308.2,507.5c-3.9-5-5.8-11.7-5.8-20
			c0-5.4,0.8-10.1,2.5-14.2s4.2-7.3,7.5-9.7c3.4-2.3,7.6-3.5,12.8-3.5c7.6,0,13.3,2.5,17.1,7.4c3.8,5,5.7,11.6,5.7,19.9
			c0,8.2-1.9,14.8-5.7,19.9c-3.8,5.1-9.5,7.7-17.1,7.7C317.7,515.1,312.1,512.5,308.2,507.5L308.2,507.5z"/>
		<path fill="#FFFFFF" d="M105.4,400v-6.7H58.9v-33.4h39.3v-6.7H58.9v-32.8h46.5v-6.7H52V400H105.4L105.4,400z M126.7,400v-39.8h50V400
			h7v-86.4h-7v39.8h-50v-39.8h-6.9V400H126.7L126.7,400z M201.9,400l29.2-82.8h-3.5L257,400h7.3l-30.6-86.4h-8.6L194.5,400H201.9
			L201.9,400z M251.6,378.3v-6.5h-44.4v6.5H251.6L251.6,378.3z M282.1,400v-74.2l50,74.2h7v-86.4h-7v74.1l-50-74.1h-7V400H282.1
			L282.1,400z M381.6,400c0.9,0,2.5,0,4.8-0.1s4.5-0.2,6.5-0.5c6.5-0.9,11.9-3.3,16.1-7.3c4.3-4,7.5-9,9.6-15.1s3.2-12.8,3.2-20.3
			c0-7.4-1.1-14.1-3.2-20.2s-5.3-11.1-9.6-15.1c-4.3-4-9.7-6.4-16.1-7.3c-2-0.3-4.2-0.5-6.5-0.5s-3.9-0.1-4.9-0.1h-25.7V400H381.6
			L381.6,400z M363.1,320.4h18.5c1.7,0,3.5,0.1,5.5,0.2s3.6,0.3,5,0.5c5.3,0.9,9.6,3,12.9,6.3s5.7,7.5,7.2,12.5
			c1.5,5.1,2.3,10.7,2.3,16.9c0,6.2-0.8,11.8-2.3,16.8c-1.5,5.1-3.9,9.2-7.2,12.5c-3.3,3.3-7.6,5.4-13,6.4c-1.4,0.2-3,0.4-4.9,0.5
			s-3.8,0.2-5.6,0.2H363v-72.8H363.1z M470.9,400c4.9,0,9.2-0.9,13.1-2.9c3.8-1.9,6.9-4.6,9-8.2c2.2-3.5,3.3-7.8,3.3-12.8
			c0-5.9-1.7-10.9-5-14.9s-7.9-6.9-13.5-8.6l0.2,2.9c4.2-1.5,7.6-4.1,10.2-7.8c2.6-3.7,3.8-7.9,3.8-12.5c0-4.1-1-7.8-3.1-11.1
			c-2.1-3.3-4.9-5.9-8.5-7.8s-7.6-2.9-12.1-2.9h-33.1V400H470.9L470.9,400z M442.2,357.9h28.3c3.4,0,6.5,0.8,9.3,2.5s5,3.9,6.6,6.7
			c1.6,2.8,2.4,6,2.4,9.5s-0.9,6.5-2.7,9c-1.8,2.5-4.2,4.4-7.3,5.7c-3.1,1.3-6.5,2-10.4,2h-26.3v-35.4H442.2z M442.2,320.2h26
			c4.7,0,8.6,1.4,11.7,4.1s4.7,6.3,4.7,10.7c0,3.1-0.7,5.9-2.2,8.3s-3.5,4.3-6,5.7c-2.5,1.4-5.3,2.1-8.3,2.1h-26L442.2,320.2
			L442.2,320.2z M564.3,396c5.8-3.8,10.2-9.1,13.2-15.9s4.4-14.6,4.4-23.4s-1.5-16.6-4.4-23.4c-3-6.8-7.4-12.1-13.2-15.9
			s-13-5.7-21.6-5.7s-15.8,1.9-21.7,5.7c-5.8,3.8-10.2,9.1-13.2,15.9s-4.4,14.6-4.4,23.4s1.5,16.6,4.4,23.4c3,6.8,7.4,12.1,13.2,15.9
			s13.1,5.7,21.7,5.7C551.2,401.8,558.4,399.9,564.3,396L564.3,396z M524.9,390.1c-4.8-3.3-8.3-7.8-10.7-13.5
			c-2.4-5.7-3.5-12.4-3.5-19.8c0.1-7.5,1.3-14.1,3.7-19.9s5.9-10.3,10.6-13.5c4.7-3.2,10.6-4.8,17.7-4.8c7.1,0,13,1.6,17.7,4.9
			c4.7,3.2,8.3,7.7,10.6,13.5c2.4,5.8,3.5,12.4,3.5,19.9s-1.2,14.1-3.5,19.9c-2.4,5.8-5.9,10.3-10.6,13.5c-4.7,3.3-10.6,4.9-17.7,4.8
			C535.5,395,529.6,393.4,524.9,390.1L524.9,390.1z M650,396c5.8-3.8,10.2-9.1,13.2-15.9s4.4-14.6,4.4-23.4s-1.5-16.6-4.4-23.4
			c-3-6.8-7.4-12.1-13.2-15.9s-13-5.7-21.6-5.7s-15.8,1.9-21.7,5.7c-5.8,3.8-10.2,9.1-13.2,15.9s-4.4,14.6-4.4,23.4
			s1.5,16.6,4.4,23.4c3,6.8,7.4,12.1,13.2,15.9s13.1,5.7,21.7,5.7C637,401.8,644.2,399.9,650,396L650,396z M610.6,390.1
			c-4.8-3.3-8.3-7.8-10.7-13.5s-3.5-12.4-3.5-19.8c0.1-7.5,1.3-14.1,3.7-19.9s5.9-10.3,10.6-13.5c4.7-3.2,10.6-4.8,17.7-4.8
			c7.1,0,13,1.6,17.7,4.9c4.7,3.2,8.3,7.7,10.6,13.5c2.4,5.8,3.5,12.4,3.5,19.9s-1.2,14.1-3.5,19.9c-2.4,5.8-5.9,10.3-10.6,13.5
			c-4.7,3.3-10.6,4.9-17.7,4.8C621.3,395,615.4,393.4,610.6,390.1L610.6,390.1z M686.5,400v-44.2l44.6,44.2h9.2l-44.9-44.9l41.3-41.5
			h-9.1l-41.1,41v-41h-6.9V400H686.5L686.5,400z"/>
		<text transform="matrix(1 0 0 1 50.0076 244.97)" fill="#FFFFFF" font-family="Manrope, Arial, sans-serif" font-size="20px"><tspan>${PROJECT_LONGNAME!} / ${PROJECT_VARIANT!} / ${PROJECT_REVISION!}</tspan></text>
		<text transform="matrix(1 0 0 1 449.4333 244.97)" fill="#FFFFFF" font-family="Manrope, Arial, sans-serif" font-size="20px"></text>
		<text transform="matrix(1 0 0 1 50.0076 694.9886)" fill="#FFFFFF" font-family="Manrope, Arial, sans-serif" font-size="20px">Generated by </text>
		<text transform="matrix(1 0 0 1 50.0076 724.9886)" fill="#FFFFFF" font-family="Manrope, Arial, sans-serif" font-size="20px">${PRODUCT_NAME!} ${PRODUCT_VERSION!}</text>
		<text transform="matrix(1 0 0 1 50.0076 754.9905)" fill="#FFFFFF" font-family="Manrope, Arial, sans-serif" font-size="20px">on ${DATE_TIME}</text>
		<text transform="matrix(1 0 0 1 121.9124 754.9905)" fill="#FFFFFF" font-family="Manrope, Arial, sans-serif" font-size="20px"></text>
		<text transform="matrix(1 0 0 1 50.0076 934.9984)" fill="#FFFFFF" font-family="Manrope, Arial, sans-serif" font-size="15px">${wordwrap(FOOTER_TEXT!, 83, 0, 0, 18)}</text>
	</g>
</svg>